<?xml version="1.0" encoding="utf-8"?>
<!-- Generator: Adobe Illustrator 16.0.0, SVG Export Plug-In . SVG Version: 6.00 Build 0)  -->
<!DOCTYPE svg PUBLIC "-//W3C//DTD SVG 1.1//EN" "http://www.w3.org/Graphics/SVG/1.1/DTD/svg11.dtd">
<svg version="1.1" id="Layer_1" xmlns="http://www.w3.org/2000/svg" xmlns:xlink="http://www.w3.org/1999/xlink" x="0px" y="0px"
	 width="239.518px" height="68.712px" viewBox="0 0 239.518 68.712" enable-background="new 0 0 239.518 68.712"
	 xml:space="preserve">
<g>
	<path d="M64.392,23.472c-0.224,1.568-0.576,3.088-1.056,4.56c-0.48,1.472-1.184,2.776-2.112,3.912
		c-0.928,1.136-2.152,2.048-3.672,2.736c-1.521,0.688-3.432,1.032-5.736,1.032c-2.688,0-4.872-0.64-6.552-1.92
		c-1.68-1.279-2.6-3.28-2.76-6l7.104-1.68c-0.032,0.833,0.24,1.536,0.816,2.112c0.576,0.576,1.279,0.864,2.112,0.864
		c0.864,0,1.567-0.216,2.112-0.648c0.544-0.432,0.976-0.967,1.296-1.608c0.319-0.64,0.552-1.335,0.696-2.088
		c0.144-0.751,0.264-1.447,0.36-2.088l3.072-21.792h7.488L64.392,23.472z"/>
	<path d="M81.144,0.864h6.192l10.032,33.984h-8.448l-1.92-7.2h-13.2l-3.84,7.2h-8.256L81.144,0.864z M82.631,10.752l-5.616,10.56
		h8.304L82.631,10.752z"/>
	<path d="M122.472,9.696c-0.641-0.896-1.457-1.584-2.448-2.064c-0.992-0.48-2.192-0.72-3.6-0.72c-1.409,0-2.753,0.272-4.032,0.816
		c-1.28,0.544-2.424,1.304-3.432,2.28c-1.008,0.977-1.856,2.136-2.544,3.48c-0.688,1.344-1.145,2.8-1.368,4.368
		c-0.224,1.601-0.184,3.064,0.12,4.392c0.304,1.328,0.816,2.48,1.536,3.456c0.72,0.977,1.632,1.736,2.736,2.28
		c1.104,0.544,2.328,0.816,3.672,0.816c1.536,0,2.943-0.32,4.224-0.96c1.28-0.64,2.384-1.536,3.312-2.688l5.568,4.656
		c-1.728,2.016-3.761,3.504-6.096,4.464c-2.337,0.96-4.673,1.44-7.008,1.44c-2.657,0-5.048-0.416-7.176-1.248
		c-2.128-0.832-3.896-2.024-5.304-3.576c-1.409-1.552-2.417-3.432-3.024-5.64s-0.72-4.672-0.336-7.392
		c0.384-2.719,1.192-5.184,2.424-7.392c1.231-2.208,2.767-4.088,4.608-5.64c1.84-1.552,3.943-2.744,6.312-3.576
		C112.983,0.417,115.495,0,118.151,0c0.96,0,1.944,0.089,2.952,0.264c1.009,0.176,1.992,0.456,2.952,0.84
		c0.96,0.384,1.864,0.896,2.712,1.536c0.848,0.641,1.561,1.424,2.137,2.352L122.472,9.696z"/>
	<path d="M126.119,17.856c0.385-2.719,1.191-5.184,2.424-7.392s2.768-4.088,4.608-5.64c1.84-1.552,3.943-2.744,6.312-3.576
		C141.831,0.417,144.343,0,146.999,0c2.655,0,5.04,0.417,7.152,1.248c2.112,0.833,3.872,2.024,5.28,3.576
		c1.407,1.552,2.416,3.432,3.023,5.64s0.721,4.672,0.336,7.392c-0.384,2.72-1.184,5.184-2.4,7.392
		c-1.216,2.208-2.752,4.088-4.607,5.64c-1.855,1.552-3.96,2.744-6.313,3.576c-2.352,0.832-4.855,1.248-7.512,1.248
		s-5.048-0.416-7.176-1.248c-2.129-0.832-3.896-2.024-5.304-3.576c-1.409-1.552-2.417-3.432-3.024-5.64
		S125.735,20.576,126.119,17.856z M133.895,17.856c-0.224,1.601-0.176,3.064,0.145,4.392c0.32,1.328,0.871,2.48,1.656,3.456
		c0.783,0.977,1.783,1.736,3,2.28c1.216,0.544,2.623,0.816,4.225,0.816c1.6,0,3.087-0.271,4.463-0.816
		c1.376-0.544,2.592-1.304,3.648-2.28c1.057-0.976,1.928-2.128,2.616-3.456c0.688-1.328,1.144-2.792,1.368-4.392
		c0.223-1.567,0.184-3.024-0.121-4.368c-0.304-1.344-0.855-2.503-1.655-3.48c-0.8-0.976-1.808-1.736-3.024-2.28
		c-1.217-0.543-2.624-0.816-4.224-0.816c-1.601,0-3.089,0.272-4.464,0.816c-1.377,0.544-2.592,1.304-3.648,2.28
		c-1.056,0.977-1.928,2.136-2.615,3.48C134.574,14.832,134.119,16.289,133.895,17.856z"/>
	<path d="M166.246,0.864h12.672c1.473,0,2.936,0.104,4.393,0.312c1.455,0.208,2.736,0.624,3.84,1.248s1.944,1.496,2.52,2.616
		c0.576,1.121,0.736,2.608,0.48,4.464c-0.256,1.92-1.016,3.513-2.279,4.776c-1.266,1.264-2.809,2.168-4.633,2.712v0.096
		c1.088,0.16,2.057,0.472,2.904,0.936c0.848,0.464,1.543,1.056,2.088,1.776c0.544,0.72,0.928,1.56,1.152,2.52
		c0.223,0.96,0.256,1.984,0.096,3.072c-0.256,1.792-0.848,3.288-1.775,4.488c-0.93,1.2-2.049,2.168-3.36,2.904
		c-1.313,0.736-2.753,1.265-4.32,1.584c-1.568,0.32-3.104,0.48-4.608,0.48h-13.92L166.246,0.864z M169.847,28.512h6.72
		c0.576,0,1.176-0.064,1.801-0.192c0.623-0.127,1.191-0.352,1.703-0.672c0.512-0.319,0.961-0.735,1.344-1.248
		c0.385-0.511,0.625-1.135,0.721-1.872c0.096-0.8-0.017-1.448-0.336-1.944c-0.32-0.496-0.768-0.872-1.344-1.128
		c-0.576-0.256-1.209-0.432-1.896-0.528c-0.688-0.096-1.336-0.144-1.943-0.144h-5.664L169.847,28.512z M171.814,14.448h5.424
		c0.576,0,1.152-0.064,1.729-0.192s1.111-0.336,1.607-0.624c0.496-0.288,0.912-0.672,1.248-1.152s0.553-1.056,0.648-1.728
		c0.096-0.703,0.023-1.288-0.217-1.752c-0.239-0.463-0.584-0.823-1.031-1.08c-0.449-0.255-0.969-0.439-1.561-0.552
		C179.07,7.256,178.486,7.2,177.91,7.2h-5.088L171.814,14.448z"/>
	<path d="M9.696,40.488H0l0.912-6.624h26.88l-0.912,6.624h-9.696l-3.84,27.36H5.856L9.696,40.488z"/>
	<path d="M27.552,33.864h7.488l-1.776,12.672h14.544l1.776-12.672h7.488L52.32,67.848h-7.488l2.064-14.688H32.352l-2.064,14.688
		H22.8L27.552,33.864z"/>
	<path d="M55.727,50.856c0.384-2.719,1.192-5.184,2.424-7.392c1.231-2.208,2.767-4.088,4.608-5.64
		c1.84-1.552,3.943-2.744,6.312-3.576C71.439,33.417,73.951,33,76.607,33c2.656,0,5.04,0.417,7.152,1.248
		c2.112,0.833,3.872,2.024,5.28,3.576c1.408,1.552,2.416,3.432,3.024,5.64s0.72,4.672,0.336,7.392
		c-0.384,2.72-1.184,5.184-2.4,7.392c-1.216,2.208-2.752,4.088-4.608,5.64c-1.856,1.552-3.96,2.744-6.312,3.576
		c-2.352,0.832-4.856,1.248-7.512,1.248c-2.657,0-5.048-0.416-7.176-1.248c-2.128-0.832-3.896-2.024-5.304-3.576
		c-1.409-1.552-2.417-3.432-3.024-5.64S55.343,53.576,55.727,50.856z M63.503,50.856c-0.224,1.601-0.176,3.064,0.144,4.392
		c0.32,1.328,0.872,2.48,1.656,3.456c0.784,0.977,1.783,1.736,3,2.28c1.216,0.544,2.624,0.816,4.224,0.816
		c1.6,0,3.087-0.271,4.464-0.816c1.375-0.544,2.592-1.304,3.648-2.28c1.056-0.976,1.928-2.128,2.616-3.456
		c0.688-1.328,1.144-2.792,1.368-4.392c0.224-1.567,0.184-3.024-0.12-4.368c-0.304-1.344-0.856-2.503-1.656-3.48
		c-0.8-0.976-1.808-1.736-3.024-2.28c-1.217-0.543-2.625-0.816-4.224-0.816c-1.601,0-3.088,0.272-4.464,0.816
		c-1.376,0.544-2.592,1.304-3.648,2.28c-1.056,0.977-1.928,2.136-2.616,3.48C64.183,47.832,63.727,49.289,63.503,50.856z"/>
	<path d="M95.854,33.864h13.152c1.728,0,3.344,0.168,4.848,0.504c1.504,0.336,2.784,0.896,3.84,1.68
		c1.056,0.784,1.84,1.84,2.352,3.168c0.512,1.328,0.625,2.984,0.336,4.968c-0.352,2.4-1.264,4.44-2.735,6.12
		c-1.472,1.68-3.44,2.744-5.904,3.192l6.624,14.352h-8.976l-5.232-13.584h-3.696L98.59,67.848h-7.488L95.854,33.864z
		 M101.375,47.928h4.416c0.672,0,1.384-0.024,2.136-0.072c0.752-0.048,1.448-0.192,2.088-0.432c0.64-0.24,1.2-0.616,1.68-1.128
		c0.48-0.512,0.784-1.232,0.912-2.16c0.127-0.864,0.048-1.552-0.24-2.064c-0.288-0.512-0.688-0.904-1.2-1.176
		c-0.512-0.271-1.112-0.456-1.8-0.552c-0.688-0.096-1.368-0.144-2.04-0.144h-4.896L101.375,47.928z"/>
	<path d="M118.51,33.864h8.16l2.353,21.792h0.097l10.176-21.792h6.959l3.937,22.368h0.097l8.832-22.368h7.584l-14.688,33.984h-6.673
		l-4.223-23.52h-0.097l-10.752,23.52h-6.433L118.51,33.864z"/>
	<path d="M166.318,33.864h23.088l-0.959,6.912h-15.601l-0.912,6.336h14.736l-0.96,6.912h-14.736l-0.96,6.912h16.464l-0.96,6.912
		h-23.952L166.318,33.864z"/>
	<path d="M207.887,42.168c-0.513-0.768-1.266-1.335-2.256-1.704c-0.992-0.368-1.953-0.552-2.881-0.552
		c-0.545,0-1.12,0.064-1.728,0.192c-0.608,0.128-1.177,0.329-1.704,0.6c-0.528,0.272-0.984,0.632-1.368,1.08
		c-0.384,0.448-0.624,0.992-0.72,1.632c-0.096,0.768,0.039,1.4,0.408,1.896c0.367,0.497,0.895,0.912,1.584,1.248
		c0.688,0.336,1.488,0.632,2.399,0.888c0.912,0.256,1.831,0.544,2.761,0.864c0.928,0.32,1.831,0.705,2.711,1.152
		c0.881,0.448,1.641,1.016,2.281,1.704c0.639,0.688,1.111,1.553,1.415,2.592c0.304,1.04,0.344,2.296,0.12,3.768
		c-0.256,1.888-0.84,3.536-1.752,4.944c-0.912,1.409-2.032,2.576-3.359,3.504c-1.328,0.929-2.816,1.616-4.465,2.064
		s-3.352,0.672-5.111,0.672c-2.209,0-4.209-0.336-6-1.008c-1.793-0.672-3.408-1.759-4.848-3.264l6.191-5.856
		c0.64,1.025,1.496,1.817,2.568,2.376c1.071,0.561,2.231,0.84,3.479,0.84c0.607,0,1.231-0.072,1.872-0.216
		c0.64-0.144,1.231-0.36,1.775-0.648c0.545-0.288,1-0.655,1.369-1.104c0.367-0.448,0.6-0.976,0.695-1.584
		c0.16-1.023-0.12-1.832-0.84-2.424c-0.721-0.592-1.641-1.096-2.76-1.512c-1.121-0.416-2.336-0.832-3.648-1.248
		c-1.313-0.416-2.512-0.976-3.6-1.68c-1.088-0.704-1.944-1.632-2.568-2.784s-0.809-2.671-0.552-4.56
		c0.256-1.824,0.84-3.424,1.752-4.8c0.912-1.375,2.04-2.528,3.384-3.456c1.344-0.928,2.832-1.624,4.465-2.088
		c1.631-0.464,3.279-0.696,4.943-0.696c1.92,0,3.736,0.272,5.447,0.816c1.713,0.545,3.193,1.457,4.44,2.736L207.887,42.168z"/>
	<path d="M221.422,40.488h-9.696l0.912-6.624h26.88l-0.912,6.624h-9.695l-3.84,27.36h-7.488L221.422,40.488z"/>
</g>
</svg>
